<svg xmlns="http://www.w3.org/2000/svg" viewBox="0 0 888 600">
  <path fill="none" d="M386.25 386.91h115.5v40h-115.5z"/>
  <path d="M405.701 389.41c2.666 0 4.8.768 6.4 2.299 1.6 1.535 2.4 3.602 2.4 6.201a9.996 9.996 0 01-.825 3.975 7.916 7.916 0 01-2.425 3.176c-1.067.832-2.384 1.316-3.95 1.449l-.35-.6c1.3 0 2.516.191 3.65.574a8.201 8.201 0 012.95 1.725c.833.768 1.492 1.709 1.975 2.826.483 1.117.725 2.424.725 3.924 0 1.602-.267 2.992-.8 4.176-.534 1.184-1.268 2.168-2.2 2.949-.934.785-2.017 1.367-3.25 1.75-1.233.385-2.55.576-3.95.576h-13.8c-.267 0-.5-.1-.7-.301a.955.955 0 01-.3-.699v-33c0-.268.1-.5.3-.701a.962.962 0 01.7-.299h13.45zm-.25 2H392.8l.55-.951v15.852l-.5-.852h12.6c1.966-.031 3.616-.682 4.95-1.949 1.333-1.266 2-3.15 2-5.65 0-1.932-.6-3.49-1.8-4.674-1.2-1.184-2.917-1.776-5.149-1.776zm.349 16.1h-12.65l.2-.301v15.602l-.25-.4h12.7c2.367 0 4.35-.592 5.95-1.775s2.4-3.074 2.4-5.676c0-1.732-.367-3.148-1.1-4.25-.733-1.1-1.733-1.906-3-2.424s-2.683-.776-4.25-.776zm37.55-8.051c.3 0 .542.102.725.301.183.199.275.434.275.699v22.951c0 .268-.1.5-.3.699a.958.958 0 01-.7.301c-.3 0-.542-.1-.725-.301a.996.996 0 01-.275-.699v-7.1l.8-.65c0 1.066-.267 2.15-.8 3.25-.534 1.1-1.267 2.1-2.2 3-.934.9-2.034 1.625-3.3 2.174-1.267.551-2.634.826-4.1.826-2.233 0-4.225-.584-5.975-1.75s-3.125-2.75-4.125-4.75-1.5-4.25-1.5-6.75c0-2.533.508-4.775 1.525-6.725 1.017-1.951 2.4-3.484 4.15-4.602 1.75-1.115 3.725-1.674 5.925-1.674 1.433 0 2.783.258 4.05.775a10.182 10.182 0 013.325 2.174c.95.934 1.691 2.025 2.225 3.275.533 1.25.8 2.609.8 4.074l-.8-1.25v-7.25c0-.266.091-.5.275-.699a.946.946 0 01.725-.299zm-10.5 23.551c1.866 0 3.533-.492 5-1.475 1.466-.982 2.616-2.334 3.45-4.051.833-1.717 1.25-3.658 1.25-5.824 0-2.066-.417-3.941-1.25-5.625-.833-1.684-1.983-3.018-3.45-4-1.467-.982-3.134-1.475-5-1.475-1.833 0-3.484.475-4.95 1.424-1.467.951-2.625 2.26-3.475 3.926-.85 1.666-1.275 3.584-1.275 5.75s.417 4.107 1.25 5.824c.833 1.717 1.983 3.068 3.45 4.051 1.466.983 3.133 1.475 5 1.475zm18.4-2.6c-.234-.4-.343-.725-.326-.975.018-.25.143-.459.375-.625.167-.168.393-.242.676-.227.283.018.525.143.725.375a10.088 10.088 0 003.325 3c1.351.768 2.941 1.15 4.774 1.15a9.285 9.285 0 003.176-.549c1.016-.367 1.85-.918 2.5-1.65s.975-1.633.975-2.701c0-1.133-.316-2.041-.949-2.725-.635-.682-1.451-1.225-2.451-1.625s-2.049-.732-3.149-1a34.978 34.978 0 01-3.325-1.025c-1.05-.383-1.975-.865-2.775-1.449a6.78 6.78 0 01-1.899-2.074c-.468-.801-.7-1.75-.7-2.852 0-1.299.35-2.465 1.051-3.5.699-1.031 1.682-1.84 2.949-2.424 1.267-.584 2.732-.875 4.4-.875.8 0 1.65.1 2.55.299.899.201 1.8.543 2.7 1.025.9.484 1.732 1.158 2.5 2.025.266.199.391.441.375.725-.018.283-.143.543-.375.775-.2.133-.418.199-.65.199-.233 0-.434-.1-.6-.299-.867-.967-1.875-1.684-3.025-2.15s-2.375-.699-3.675-.699a8.498 8.498 0 00-3.075.549c-.949.367-1.725.908-2.324 1.625-.601.717-.9 1.625-.9 2.725.066 1.035.425 1.885 1.074 2.551.65.668 1.518 1.217 2.601 1.65s2.308.834 3.675 1.199c1.1.268 2.125.576 3.075.926s1.782.791 2.5 1.324a5.826 5.826 0 011.7 2c.416.801.625 1.801.625 3 0 1.4-.375 2.609-1.125 3.625-.75 1.018-1.783 1.801-3.1 2.35-1.318.551-2.826.826-4.525.826-1.734 0-3.4-.35-5-1.051-1.603-.698-3.054-1.848-4.353-3.448zm35.699 4.5c-2.5 0-4.709-.533-6.625-1.6-1.917-1.066-3.425-2.576-4.525-4.525-1.1-1.951-1.649-4.242-1.649-6.875 0-2.801.542-5.184 1.625-7.15s2.483-3.475 4.2-4.525c1.717-1.049 3.541-1.574 5.475-1.574 1.4 0 2.767.225 4.1.674a10.077 10.077 0 013.576 2.102c1.049.949 1.899 2.133 2.549 3.549.65 1.418 1.008 3.109 1.076 5.076 0 .266-.101.508-.301.725a.922.922 0 01-.699.324h-20.4l-.301-1.9h20.15l-.5.451v-.9c-.167-1.766-.725-3.25-1.675-4.449-.95-1.201-2.093-2.109-3.425-2.727a9.806 9.806 0 00-4.15-.924c-1 0-2.05.225-3.15.674-1.1.451-2.117 1.135-3.049 2.051-.934.918-1.693 2.074-2.275 3.475-.584 1.4-.875 3.033-.875 4.9 0 2.033.408 3.9 1.225 5.6.816 1.701 2.033 3.068 3.65 4.1 1.616 1.035 3.607 1.551 5.975 1.551 1.133 0 2.2-.191 3.2-.574s1.899-.893 2.7-1.525c.8-.633 1.449-1.316 1.949-2.051.268-.299.551-.449.851-.449.233 0 .433.092.601.275.166.184.25.391.25.625a.935.935 0 01-.201.6c-1.033 1.334-2.357 2.5-3.975 3.5s-3.41 1.496-5.377 1.496z" fill="#4C566A"/>
  <g fill="none" stroke="#4C566A" stroke-width="16" stroke-miterlimit="10">
    <path d="M480.959 339.41v-82.543h49.281v39.424h-49.281M530.24 173.09v123.201m-110.881 0v-39.424H357.76h123.199"/>
    <path d="M394.72 194.65h-36.96v-21.56 123.201"/>
  </g>
</svg>
